<svg width="365" height="175" viewBox="0 0 365 175" fill="none" xmlns="http://www.w3.org/2000/svg">
<path fill-rule="evenodd" clip-rule="evenodd" d="M297.817 8.14183C288.43 9.284 280.159 13.245 273.715 19.6836C258.095 35.2919 258.095 60.5647 273.715 76.1729C280.984 83.436 290.287 87.4459 300.86 87.8728L304.01 88V68.0175V48.035H301.981H299.952V65.9828V83.9308L298.511 83.7819C290.061 82.9092 282.582 79.3491 276.557 73.3315C271.284 68.0649 268.065 62.0698 266.589 54.7683C265.942 51.5688 265.899 44.7762 266.506 41.5272C267.868 34.2329 271.259 27.8216 276.559 22.5238C281.829 17.2549 287.829 14.0379 295.136 12.5629C298.338 11.9166 305.136 11.8741 308.387 12.4801C315.687 13.8407 322.103 17.2297 327.405 22.5251C332.678 27.7917 335.897 33.7868 337.373 41.0883C338.02 44.2878 338.063 51.0804 337.456 54.3294C336.613 58.8441 334.607 63.8431 332.077 67.7309C331.402 68.7688 330.94 69.685 331.045 69.7767C332.116 70.7132 333.979 71.9518 334.089 71.802C339.951 63.8916 342.827 53.5205 341.792 44.026C340.765 34.6044 336.789 26.2207 330.247 19.6836C324.355 13.7963 317.003 9.99132 308.707 8.53614C305.895 8.04261 300.297 7.83991 297.817 8.14183ZM300.415 36.7453C297.818 38.0642 297.573 41.6864 299.974 43.274C303.172 45.3887 307.166 41.9701 305.505 38.5404C304.565 36.6011 302.284 35.7965 300.415 36.7453Z" fill="#FFFBFB" stroke="#FFFBFB" stroke-width="4"/>
<path d="M3.86364 26.0682V19.8182H47.5V26.0682H29.2045V78H22.1591V26.0682H3.86364ZM58.3736 78V19.8182H78.0327C82.5781 19.8182 86.3092 20.5947 89.2259 22.1477C92.1425 23.6818 94.3016 25.7936 95.7031 28.483C97.1046 31.1723 97.8054 34.2311 97.8054 37.6591C97.8054 41.0871 97.1046 44.1269 95.7031 46.7784C94.3016 49.4299 92.152 51.5133 89.2543 53.0284C86.3565 54.5246 82.6539 55.2727 78.1463 55.2727H62.2372V48.9091H77.919C81.0251 48.9091 83.5251 48.4545 85.419 47.5455C87.3319 46.6364 88.7145 45.3485 89.5668 43.6818C90.438 41.9962 90.8736 39.9886 90.8736 37.6591C90.8736 35.3295 90.438 33.2936 89.5668 31.5511C88.6956 29.8087 87.3035 28.464 85.3906 27.517C83.4777 26.5511 80.9493 26.0682 77.8054 26.0682H65.419V78H58.3736ZM85.7599 51.8636L100.078 78H91.8963L77.8054 51.8636H85.7599ZM109.545 78V19.8182H144.659V26.0682H116.591V45.7273H142.841V51.9773H116.591V71.75H145.114V78H109.545ZM203.494 19.8182V78H196.676L164.972 32.3182H164.403V78H157.358V19.8182H164.176L195.994 65.6136H196.562V19.8182H203.494ZM214.411 26.0682V19.8182H258.047V26.0682H239.751V78H232.706V26.0682H214.411Z" fill="#537640"/>
<path d="M162.864 104.068V97.8182H206.5V104.068H188.205V156H181.159V104.068H162.864ZM228.432 156.909C224.227 156.909 220.6 155.981 217.551 154.125C214.521 152.25 212.182 149.636 210.534 146.284C208.905 142.913 208.091 138.992 208.091 134.523C208.091 130.053 208.905 126.114 210.534 122.705C212.182 119.277 214.473 116.606 217.409 114.693C220.364 112.761 223.811 111.795 227.75 111.795C230.023 111.795 232.267 112.174 234.483 112.932C236.699 113.689 238.716 114.92 240.534 116.625C242.352 118.311 243.801 120.545 244.881 123.33C245.96 126.114 246.5 129.542 246.5 133.614V136.455H212.864V130.659H239.682C239.682 128.197 239.189 126 238.205 124.068C237.239 122.136 235.856 120.612 234.057 119.494C232.277 118.377 230.174 117.818 227.75 117.818C225.08 117.818 222.769 118.481 220.818 119.807C218.886 121.114 217.4 122.818 216.358 124.92C215.316 127.023 214.795 129.277 214.795 131.682V135.545C214.795 138.841 215.364 141.634 216.5 143.926C217.655 146.199 219.256 147.932 221.301 149.125C223.347 150.299 225.723 150.886 228.432 150.886C230.193 150.886 231.784 150.64 233.205 150.148C234.644 149.636 235.884 148.879 236.926 147.875C237.968 146.852 238.773 145.583 239.341 144.068L245.818 145.886C245.136 148.083 243.991 150.015 242.381 151.682C240.771 153.33 238.782 154.617 236.415 155.545C234.047 156.455 231.386 156.909 228.432 156.909ZM274.426 156.909C270.335 156.909 266.813 155.943 263.858 154.011C260.903 152.08 258.631 149.419 257.04 146.028C255.449 142.638 254.653 138.765 254.653 134.409C254.653 129.977 255.468 126.066 257.097 122.676C258.744 119.267 261.036 116.606 263.972 114.693C266.926 112.761 270.373 111.795 274.312 111.795C277.381 111.795 280.146 112.364 282.608 113.5C285.07 114.636 287.087 116.227 288.659 118.273C290.231 120.318 291.206 122.705 291.585 125.432H284.881C284.369 123.443 283.233 121.682 281.472 120.148C279.729 118.595 277.381 117.818 274.426 117.818C271.813 117.818 269.521 118.5 267.551 119.864C265.6 121.208 264.076 123.112 262.977 125.574C261.898 128.017 261.358 130.886 261.358 134.182C261.358 137.553 261.888 140.489 262.949 142.989C264.028 145.489 265.544 147.43 267.494 148.812C269.464 150.195 271.775 150.886 274.426 150.886C276.169 150.886 277.75 150.583 279.17 149.977C280.591 149.371 281.794 148.5 282.778 147.364C283.763 146.227 284.464 144.864 284.881 143.273H291.585C291.206 145.848 290.269 148.169 288.773 150.233C287.295 152.278 285.335 153.907 282.892 155.119C280.468 156.312 277.646 156.909 274.426 156.909ZM308.091 129.75V156H301.386V97.8182H308.091V119.182H308.659C309.682 116.928 311.216 115.138 313.261 113.812C315.326 112.468 318.072 111.795 321.5 111.795C324.473 111.795 327.078 112.392 329.312 113.585C331.547 114.759 333.28 116.568 334.511 119.011C335.761 121.436 336.386 124.523 336.386 128.273V156H329.682V128.727C329.682 125.261 328.782 122.581 326.983 120.688C325.203 118.775 322.731 117.818 319.568 117.818C317.371 117.818 315.402 118.282 313.659 119.21C311.936 120.138 310.572 121.492 309.568 123.273C308.583 125.053 308.091 127.212 308.091 129.75ZM353.538 156.455C352.137 156.455 350.934 155.953 349.93 154.949C348.927 153.945 348.425 152.742 348.425 151.341C348.425 149.939 348.927 148.737 349.93 147.733C350.934 146.729 352.137 146.227 353.538 146.227C354.94 146.227 356.143 146.729 357.146 147.733C358.15 148.737 358.652 149.939 358.652 151.341C358.652 152.269 358.415 153.121 357.942 153.898C357.487 154.674 356.872 155.299 356.095 155.773C355.338 156.227 354.485 156.455 353.538 156.455Z" fill="#537640"/>
</svg>
