<svg width="222" height="222" viewBox="0 0 222 222" fill="none" xmlns="http://www.w3.org/2000/svg">
<circle cx="111" cy="111" r="111" fill="#396846"/>
<path fill-rule="evenodd" clip-rule="evenodd" d="M103.68 41.2482C87.2526 43.247 72.7777 50.1787 61.5011 61.4464C34.1663 88.7608 34.1663 132.988 61.5011 160.303C74.2216 173.013 90.5017 180.03 109.005 180.777L114.517 181V146.031V111.061H110.967H107.417V142.47V173.879L104.894 173.618C90.1071 172.091 77.019 165.861 66.4752 155.33C57.2475 146.113 51.6135 135.622 49.0302 122.844C47.8983 117.245 47.824 105.358 48.8852 99.6726C51.2682 86.9076 57.2034 75.6878 66.4774 66.4167C75.701 57.196 86.2003 51.5663 98.9877 48.985C104.591 47.854 116.487 47.7797 122.177 48.8401C134.952 51.2213 146.18 57.1519 155.458 66.4189C164.686 75.6355 170.32 86.1268 172.903 98.9045C174.035 104.504 174.11 116.391 173.048 122.076C171.573 129.977 168.062 138.725 163.635 145.529C162.454 147.345 161.644 148.949 161.828 149.109C163.704 150.748 166.963 152.916 167.157 152.654C177.415 138.81 182.448 120.661 180.637 104.045C178.839 87.5577 171.881 72.8862 160.432 61.4464C150.121 51.1436 137.256 44.4848 122.738 41.9382C117.816 41.0746 108.02 40.7198 103.68 41.2482ZM108.227 91.3044C103.682 93.6123 103.254 99.9511 107.455 102.73C113.052 106.43 120.041 100.448 117.133 94.4457C115.489 91.0519 111.497 89.6439 108.227 91.3044Z" fill="#120006" stroke="#120006" stroke-width="4"/>
</svg>
