<svg width="222" height="222" viewBox="0 0 222 222" fill="none" xmlns="http://www.w3.org/2000/svg">
<circle cx="111" cy="111" r="111" fill="#396846"/>
<path fill-rule="evenodd" clip-rule="evenodd" d="M104.68 41.2482C88.2526 43.247 73.7777 50.1787 62.5011 61.4464C35.1663 88.7608 35.1663 132.988 62.5011 160.303C75.2216 173.013 91.5017 180.03 110.005 180.777L115.517 181V146.031V111.061H111.967H108.417V142.47V173.879L105.894 173.618C91.1071 172.091 78.019 165.861 67.4752 155.33C58.2475 146.113 52.6135 135.622 50.0302 122.844C48.8983 117.245 48.824 105.358 49.8852 99.6726C52.2682 86.9076 58.2034 75.6878 67.4774 66.4167C76.701 57.196 87.2003 51.5663 99.9877 48.985C105.591 47.854 117.487 47.7797 123.177 48.8401C135.952 51.2213 147.18 57.1519 156.458 66.4189C165.686 75.6355 171.32 86.1268 173.903 98.9045C175.035 104.504 175.11 116.391 174.048 122.076C172.573 129.977 169.062 138.725 164.635 145.529C163.454 147.345 162.644 148.949 162.828 149.109C164.704 150.748 167.963 152.916 168.157 152.654C178.415 138.81 183.448 120.661 181.637 104.045C179.839 87.5577 172.881 72.8862 161.432 61.4464C151.121 51.1436 138.256 44.4848 123.738 41.9382C118.816 41.0746 109.02 40.7198 104.68 41.2482ZM109.227 91.3044C104.682 93.6123 104.254 99.9511 108.455 102.73C114.052 106.43 121.041 100.448 118.133 94.4457C116.489 91.0519 112.497 89.6439 109.227 91.3044Z" fill="white" stroke="white" stroke-width="4"/>
</svg>
